# Blender v2.91.0 OBJ File: 'Pistol.blend'
# www.blender.org
o Cube
v -0.000810 1.267333 -8.205518
v -0.000810 -1.298578 -8.205518
v -0.000810 1.267333 -1.705473
v -0.000810 -1.298578 0.418665
v 0.770380 1.267333 -8.202435
v 1.127360 0.809345 -8.202435
v 1.127360 -0.840590 -8.202435
v 0.770380 -1.298578 -8.202435
v 1.127360 0.809345 -1.867840
v 0.770380 1.267333 -1.702393
v 1.127360 -0.840590 -2.464247
v 0.770380 -1.298578 -1.702393
v 1.127360 -1.417536 4.601135
v 1.127360 1.442246 3.623461
v 1.127360 -1.417536 -2.672796
v 1.127360 1.442246 -1.639065
v -0.001801 -0.845014 0.649780
v 0.192922 -1.039637 1.006873
v -0.001801 -0.845014 -0.272049
v 0.192922 -1.039637 0.358235
v -0.005639 -1.144609 1.439504
v 0.192922 -1.144609 1.439504
v -0.005639 -1.405882 0.845815
v 0.192922 -1.405882 0.845815
v -0.005639 -1.663175 1.649985
v 0.192922 -1.663175 1.649985
v -0.005639 -2.096827 1.167620
v 0.192922 -2.096827 1.167620
v -0.005639 -2.059616 1.935798
v 0.192922 -2.059616 1.935798
v -0.005639 -2.686190 1.768058
v 0.192922 -2.686190 1.768058
v -0.005639 -2.186323 2.350864
v 0.192922 -2.186323 2.350864
v -0.005639 -2.834324 2.379625
v 0.192922 -2.834324 2.379625
v -0.005639 -2.098210 3.076647
v 0.192922 -2.098210 3.076647
v -0.005639 -2.746210 3.105408
v 0.192922 -2.746210 3.105408
v 1.127360 -1.417536 2.736712
v 1.127360 -6.734381 5.918680
v 1.127360 -6.734381 4.054256
v 1.127360 1.442246 4.882936
v 1.127360 -0.475539 5.696764
v 1.127360 -0.954806 5.354111
v -0.001078 1.442275 4.349998
v 0.803839 1.442275 4.349998
v -0.001078 1.442275 3.871920
v 0.803839 1.442275 3.871920
v 0.550603 1.924288 3.871920
v 0.550603 1.924288 4.349998
v 0.803839 1.924288 4.349998
v 0.803839 1.924288 3.871920
v -0.001035 1.267501 -7.467467
v 0.214866 1.267501 -7.467467
v -0.001035 1.267501 -7.763623
v 0.214866 1.267501 -7.763623
v -0.001035 1.808868 -7.763623
v -0.001035 1.808868 -7.467467
v 0.214866 1.808868 -7.467467
v 0.214866 1.808868 -7.763623
v 0.000810 1.267333 -8.205518
v 0.000810 -1.298578 -8.205518
v 0.000810 1.267333 -1.705473
v 0.000810 -1.298578 0.418665
v -0.770380 1.267333 -8.202435
v -1.127360 0.809345 -8.202435
v -1.127360 -0.840590 -8.202435
v -0.770380 -1.298578 -8.202435
v -1.127360 0.809345 -1.867840
v -0.770380 1.267333 -1.702393
v -1.127360 -0.840590 -2.464247
v -0.770380 -1.298578 -1.702393
v 0.000000 -1.417536 4.601135
v 0.000000 1.442246 3.623461
v 0.000000 -1.417536 -2.672796
v 0.000000 1.442246 -1.639065
v -1.127360 -1.417536 4.601135
v -1.127360 1.442246 3.623461
v -1.127360 -1.417536 -2.672796
v -1.127360 1.442246 -1.639065
v 0.001801 -0.845014 0.649780
v -0.192922 -1.039637 1.006873
v 0.001801 -0.845014 -0.272049
v -0.192922 -1.039637 0.358235
v 0.005639 -1.144609 1.439504
v -0.192922 -1.144609 1.439504
v 0.005639 -1.405882 0.845815
v -0.192922 -1.405882 0.845815
v 0.005639 -1.663175 1.649985
v -0.192922 -1.663175 1.649985
v 0.005639 -2.096827 1.167620
v -0.192922 -2.096827 1.167620
v 0.005639 -2.059616 1.935798
v -0.192922 -2.059616 1.935798
v 0.005639 -2.686190 1.768058
v -0.192922 -2.686190 1.768058
v 0.005639 -2.186323 2.350864
v -0.192922 -2.186323 2.350864
v 0.005639 -2.834324 2.379625
v -0.192922 -2.834324 2.379625
v 0.005639 -2.098210 3.076647
v -0.192922 -2.098210 3.076647
v 0.005639 -2.746210 3.105408
v -0.192922 -2.746210 3.105408
v 0.000000 -1.417536 2.736712
v -1.127360 -1.417536 2.736712
v 0.000000 -6.734381 4.054256
v 0.000000 -6.734381 5.918680
v -1.127360 -6.734381 5.918680
v -1.127360 -6.734381 4.054256
v 0.000000 1.442246 4.882936
v -1.127360 1.442246 4.882936
v 0.000000 -0.954806 5.354111
v 0.000000 -0.475539 5.696764
v -1.127360 -0.475539 5.696764
v -1.127360 -0.954806 5.354111
v 0.001078 1.442275 4.349998
v -0.803839 1.442275 4.349998
v 0.001078 1.442275 3.871920
v -0.803839 1.442275 3.871920
v -0.550603 1.924288 3.871920
v -0.550603 1.924288 4.349998
v -0.803839 1.924288 4.349998
v -0.803839 1.924288 3.871920
v 0.001035 1.267501 -7.467467
v -0.214866 1.267501 -7.467467
v 0.001035 1.267501 -7.763623
v -0.214866 1.267501 -7.763623
v 0.001035 1.808868 -7.763623
v 0.001035 1.808868 -7.467467
v -0.214866 1.808868 -7.467467
v -0.214866 1.808868 -7.763623
vt 0.125000 0.500000
vt 0.295894 0.750000
vt 0.125000 0.750000
vt 0.625000 0.000000
vt 0.375000 0.250000
vt 0.375000 0.000000
vt 0.375000 0.829106
vt 0.625000 1.000000
vt 0.375000 1.000000
vt 0.704106 0.500000
vt 0.875000 0.750000
vt 0.704106 0.750000
vt 0.580378 0.544622
vt 0.419622 0.705378
vt 0.419622 0.544622
vt 0.580378 0.705378
vt 0.295894 0.500000
vt 0.625000 0.250000
vt 0.375000 0.420894
vt 0.625000 0.420894
vt 0.625000 0.750000
vt 0.375000 0.750000
vt 0.375000 0.625000
vt 0.625000 0.250000
vt 0.375000 0.500000
vt 0.375000 0.250000
vt 0.625000 0.750000
vt 0.416897 0.750000
vt 0.375000 0.750000
vt 0.125000 0.625000
vt 0.125000 0.625000
vt 0.000000 0.000000
vt 1.000000 1.000000
vt 1.000000 0.000000
vt 0.000000 1.000000
vt 1.000000 1.000000
vt 1.000000 1.000000
vt 0.000000 0.000000
vt 1.000000 0.000000
vt 0.000000 1.000000
vt 1.000000 0.000000
vt 1.000000 0.000000
vt 0.000000 0.000000
vt 0.000000 1.000000
vt 0.000000 1.000000
vt 1.000000 1.000000
vt 1.000000 1.000000
vt 0.000000 0.000000
vt 1.000000 0.000000
vt 0.000000 0.000000
vt 0.000000 0.000000
vt 0.000000 1.000000
vt 1.000000 0.000000
vt 0.000000 1.000000
vt 1.000000 1.000000
vt 0.125000 0.500000
vt 0.375000 0.625000
vt 0.125000 0.750000
vt 0.375000 1.000000
vt 0.375000 0.750000
vt 0.625000 1.000000
vt 0.625000 0.500000
vt 0.375000 1.000000
vt 0.416897 1.000000
vt 0.000000 1.000000
vt 1.000000 0.000000
vt 0.000000 0.000000
vt 1.000000 0.000000
vt 0.000000 1.000000
vt 0.000000 0.000000
vt 1.000000 1.000000
vt 1.000000 1.000000
vt 0.000000 1.000000
vt 1.000000 0.000000
vt 0.000000 0.000000
vt 1.000000 0.000000
vt 0.000000 1.000000
vt 0.000000 0.000000
vt 1.000000 1.000000
vt 1.000000 1.000000
vt 0.125000 0.500000
vt 0.295894 0.750000
vt 0.295894 0.500000
vt 0.375000 0.250000
vt 0.625000 0.000000
vt 0.375000 0.000000
vt 0.375000 0.829106
vt 0.625000 1.000000
vt 0.625000 0.829106
vt 0.704106 0.500000
vt 0.875000 0.750000
vt 0.875000 0.500000
vt 0.419622 0.705378
vt 0.580378 0.544622
vt 0.419622 0.544622
vt 0.580378 0.705378
vt 0.704106 0.750000
vt 0.375000 0.420894
vt 0.625000 0.250000
vt 0.625000 0.420894
vt 0.375000 0.625000
vt 0.625000 0.750000
vt 0.625000 0.500000
vt 0.375000 0.500000
vt 0.375000 0.750000
vt 0.625000 0.750000
vt 0.000000 0.000000
vt 1.000000 1.000000
vt 0.000000 1.000000
vt 1.000000 1.000000
vt 0.000000 1.000000
vt 1.000000 1.000000
vt 0.000000 0.000000
vt 1.000000 0.000000
vt 1.000000 0.000000
vt 1.000000 0.000000
vt 0.000000 0.000000
vt 1.000000 0.000000
vt 1.000000 1.000000
vt 0.000000 1.000000
vt 1.000000 1.000000
vt 0.000000 1.000000
vt 0.000000 0.000000
vt 0.000000 0.000000
vt 1.000000 0.000000
vt 0.000000 0.000000
vt 0.000000 1.000000
vt 1.000000 0.000000
vt 1.000000 1.000000
vt 0.000000 1.000000
vt 0.375000 0.625000
vt 0.375000 0.000000
vt 0.375000 0.125000
vt 0.375000 0.125000
vt 0.375000 0.750000
vt 0.375000 0.750000
vt 0.416897 0.750000
vt 0.000000 0.000000
vt 0.000000 0.000000
vt 0.000000 0.000000
vt 1.000000 0.000000
vt 0.000000 1.000000
vt 0.000000 0.000000
vt 0.000000 1.000000
vt 1.000000 0.000000
vt 0.000000 0.000000
vt 1.000000 1.000000
vt 1.000000 0.000000
vt 0.000000 1.000000
vt 0.000000 0.000000
vt 0.000000 1.000000
vt 1.000000 0.000000
vt 0.000000 0.000000
vt 1.000000 1.000000
vt 1.000000 1.000000
vt 0.625000 0.829106
vt 0.875000 0.500000
vt 0.375000 1.000000
vt 0.625000 1.000000
vt 0.125000 0.750000
vt 0.375000 1.000000
vt 0.375000 0.000000
vt 0.000000 0.000000
vt 0.000000 0.000000
vt 1.000000 1.000000
vn 0.0000 -1.0000 0.0000
vn -1.0000 0.0000 0.0000
vn 0.9043 0.2722 0.3288
vn 0.0000 1.0000 0.0000
vn 1.0000 0.0000 0.0000
vn 0.7887 0.6148 0.0000
vn 0.7887 -0.6148 0.0000
vn 0.0040 0.0000 -1.0000
vn 0.9255 -0.1288 0.3562
vn 0.0000 0.0000 -1.0000
vn 0.0000 0.3399 -0.9404
vn 0.0000 -0.2405 -0.9706
vn -0.7069 -0.7073 0.0000
vn 0.0000 0.4222 0.9065
vn 0.0000 0.7996 0.6006
vn -0.2709 -0.8996 -0.3426
vn 1.0000 -0.0068 0.0000
vn 0.0000 -0.3761 -0.9266
vn 0.0000 0.9719 0.2354
vn 0.0000 0.7137 0.7005
vn 0.0000 -0.5848 -0.8112
vn 0.0000 -0.9927 0.1205
vn 0.0000 -0.9564 -0.2920
vn 0.0000 -0.0443 -0.9990
vn 0.0000 0.9927 -0.1205
vn 0.0000 0.2405 0.9706
vn 0.0000 -0.8520 0.5236
vn 0.0000 0.3906 0.9205
vn 0.0000 -0.5816 0.8135
vn 0.0000 0.0000 1.0000
vn -0.6580 0.7531 0.0000
vn 0.0040 0.0000 1.0000
vn -0.7887 0.6148 0.0000
vn -0.7887 -0.6148 0.0000
vn -0.0040 0.0000 -1.0000
vn -0.4205 0.0000 0.9073
vn 0.7069 -0.7073 0.0000
vn 0.4836 0.7830 0.3912
vn 0.2709 -0.8996 -0.3426
vn -1.0000 -0.0068 0.0000
vn 0.6580 0.7531 0.0000
vn -0.0040 0.0000 1.0000
vn 0.4205 0.0000 0.9073
vn -0.4836 0.7830 0.3912
vn 0.0000 -0.9718 -0.2358
vn 1.0000 -0.0059 0.0026
vn -0.9043 0.2722 0.3288
vn -0.9255 -0.1288 0.3562
vn -1.0000 -0.0059 0.0026
s off
f 2/1/1 12/2/1 4/3/1
f 3/4/2 2/5/2 4/6/2
f 12/7/3 3/8/3 4/9/3
f 5/10/4 3/11/4 10/12/4
f 6/13/5 11/14/5 7/15/5
f 5/10/6 9/16/6 6/13/6
f 8/17/7 11/14/7 12/2/7
f 1/18/8 8/19/8 2/5/8
f 9/16/9 12/2/9 11/14/9
f 5/20/10 7/15/10 8/19/10
f 14/21/5 13/22/5 41/23/5
f 78/24/11 15/25/11 77/26/11
f 44/27/5 45/28/5 46/29/5
f 41/23/12 109/30/12 107/31/12
f 17/32/13 20/33/13 18/34/13
f 23/35/14 28/36/14 24/37/14
f 20/33/15 23/35/15 24/37/15
f 18/34/16 21/38/16 17/32/16
f 18/34/2 24/37/2 22/39/2
f 17/32/17 23/35/17 19/40/17
f 28/36/2 30/41/2 26/42/2
f 22/39/18 25/43/18 21/38/18
f 24/37/2 26/42/2 22/39/2
f 23/35/5 25/43/5 27/44/5
f 31/45/19 36/46/19 32/47/19
f 27/44/5 29/48/5 31/45/5
f 27/44/20 32/47/20 28/36/20
f 26/42/21 29/48/21 25/43/21
f 34/49/22 37/50/22 33/51/22
f 30/41/23 33/51/23 29/48/23
f 32/47/2 34/49/2 30/41/2
f 31/45/5 33/51/5 35/52/5
f 38/53/24 39/54/24 37/50/24
f 34/49/2 40/55/2 38/53/2
f 33/51/5 39/54/5 35/52/5
f 35/52/25 40/55/25 36/46/25
f 15/25/1 107/31/1 77/56/1
f 43/57/1 110/58/1 109/30/1
f 13/22/5 43/57/5 41/23/5
f 75/59/26 42/60/26 13/22/26
f 76/61/4 16/62/4 78/24/4
f 13/22/27 115/63/27 75/59/27
f 44/27/28 116/64/28 45/28/28
f 76/61/4 44/27/4 14/21/4
f 46/29/29 116/64/29 115/63/29
f 49/65/1 48/66/1 47/67/1
f 53/68/4 51/69/4 52/70/4
f 50/71/10 51/69/10 54/72/10
f 48/66/30 52/70/30 47/67/30
f 50/71/5 53/68/5 48/66/5
f 47/67/31 51/69/31 49/65/31
f 57/73/1 56/74/1 55/75/1
f 61/76/4 59/77/4 60/78/4
f 57/73/10 62/79/10 58/80/10
f 56/74/30 60/78/30 55/75/30
f 58/80/5 61/76/5 56/74/5
f 55/75/2 59/77/2 57/73/2
f 64/81/1 74/82/1 70/83/1
f 64/84/5 65/85/5 66/86/5
f 74/87/32 65/88/32 72/89/32
f 67/90/4 65/91/4 63/92/4
f 73/93/2 68/94/2 69/95/2
f 67/90/33 71/96/33 72/97/33
f 73/93/34 70/83/34 74/82/34
f 70/98/35 63/99/35 64/84/35
f 71/96/36 74/82/36 72/89/36
f 67/100/10 69/95/10 68/94/10
f 108/101/2 80/102/2 82/103/2
f 81/104/11 78/24/11 77/26/11
f 118/105/2 114/106/2 80/102/2
f 109/30/12 108/101/12 107/31/12
f 83/107/37 86/108/37 85/109/37
f 94/110/14 89/111/14 90/112/14
f 86/108/38 89/111/38 85/109/38
f 87/113/39 84/114/39 83/107/39
f 84/114/5 90/112/5 86/108/5
f 89/111/40 83/107/40 85/109/40
f 96/115/5 94/110/5 92/116/5
f 91/117/18 88/118/18 87/113/18
f 92/116/5 90/112/5 88/118/5
f 89/111/2 91/117/2 87/113/2
f 102/119/19 97/120/19 98/121/19
f 93/122/2 95/123/2 91/117/2
f 98/121/20 93/122/20 94/110/20
f 95/123/21 92/116/21 91/117/21
f 103/124/22 100/125/22 99/126/22
f 99/126/23 96/115/23 95/123/23
f 100/125/5 98/121/5 96/115/5
f 97/120/2 99/126/2 95/123/2
f 105/127/24 104/128/24 103/124/24
f 100/125/5 106/129/5 102/119/5
f 105/127/2 99/126/2 101/130/2
f 106/129/25 101/130/25 102/119/25
f 107/31/1 81/104/1 77/56/1
f 110/58/1 112/131/1 109/30/1
f 75/132/5 109/133/5 107/134/5
f 112/131/2 79/135/2 108/101/2
f 111/136/26 75/59/26 79/135/26
f 82/103/4 76/61/4 78/24/4
f 115/63/27 79/135/27 75/59/27
f 116/64/28 114/106/28 117/137/28
f 114/106/4 76/61/4 80/102/4
f 116/64/29 118/105/29 115/63/29
f 113/138/5 116/139/5 115/140/5
f 120/141/1 121/142/1 119/143/1
f 123/144/4 125/145/4 124/146/4
f 122/147/10 123/144/10 121/142/10
f 124/146/30 120/141/30 119/143/30
f 125/145/2 122/147/2 120/141/2
f 123/144/41 119/143/41 121/142/41
f 128/148/1 129/149/1 127/150/1
f 131/151/4 133/152/4 132/153/4
f 134/154/10 129/149/10 130/155/10
f 132/153/30 128/148/30 127/150/30
f 133/152/2 130/155/2 128/148/2
f 131/151/5 127/150/5 129/149/5
f 2/1/1 8/17/1 12/2/1
f 3/4/2 1/18/2 2/5/2
f 12/7/42 10/156/42 3/8/42
f 5/10/4 1/157/4 3/11/4
f 6/13/5 9/16/5 11/14/5
f 5/10/6 10/12/6 9/16/6
f 8/17/7 7/15/7 11/14/7
f 1/18/8 5/20/8 8/19/8
f 9/16/43 10/156/43 12/2/43
f 5/20/10 6/13/10 7/15/10
f 41/23/5 15/25/5 16/62/5
f 16/62/5 14/21/5 41/23/5
f 78/24/11 16/62/11 15/25/11
f 46/29/5 13/22/5 14/21/5
f 14/21/5 44/27/5 46/29/5
f 41/23/12 43/57/12 109/30/12
f 17/32/13 19/40/13 20/33/13
f 23/35/14 27/44/14 28/36/14
f 20/33/44 19/40/44 23/35/44
f 18/34/45 22/39/45 21/38/45
f 18/34/2 20/33/2 24/37/2
f 17/32/46 21/38/46 23/35/46
f 28/36/2 32/47/2 30/41/2
f 22/39/18 26/42/18 25/43/18
f 24/37/2 28/36/2 26/42/2
f 23/35/5 21/38/5 25/43/5
f 31/45/19 35/52/19 36/46/19
f 27/44/5 25/43/5 29/48/5
f 27/44/20 31/45/20 32/47/20
f 26/42/21 30/41/21 29/48/21
f 34/49/22 38/53/22 37/50/22
f 30/41/23 34/49/23 33/51/23
f 32/47/2 36/46/2 34/49/2
f 31/45/5 29/48/5 33/51/5
f 38/53/24 40/55/24 39/54/24
f 34/49/2 36/46/2 40/55/2
f 33/51/5 37/50/5 39/54/5
f 35/52/25 39/54/25 40/55/25
f 15/25/1 41/23/1 107/31/1
f 43/57/1 42/60/1 110/58/1
f 13/22/5 42/60/5 43/57/5
f 75/59/26 110/158/26 42/60/26
f 76/61/4 14/21/4 16/62/4
f 13/22/27 46/29/27 115/63/27
f 44/27/28 113/159/28 116/64/28
f 76/61/4 113/159/4 44/27/4
f 46/29/29 45/28/29 116/64/29
f 49/65/1 50/71/1 48/66/1
f 53/68/4 54/72/4 51/69/4
f 50/71/10 49/65/10 51/69/10
f 48/66/30 53/68/30 52/70/30
f 50/71/5 54/72/5 53/68/5
f 47/67/31 52/70/31 51/69/31
f 57/73/1 58/80/1 56/74/1
f 61/76/4 62/79/4 59/77/4
f 57/73/10 59/77/10 62/79/10
f 56/74/30 61/76/30 60/78/30
f 58/80/5 62/79/5 61/76/5
f 55/75/2 60/78/2 59/77/2
f 64/81/1 66/160/1 74/82/1
f 64/84/5 63/99/5 65/85/5
f 74/87/47 66/161/47 65/88/47
f 67/90/4 72/97/4 65/91/4
f 73/93/2 71/96/2 68/94/2
f 67/90/33 68/94/33 71/96/33
f 73/93/34 69/95/34 70/83/34
f 70/98/35 67/100/35 63/99/35
f 71/96/48 73/93/48 74/82/48
f 67/100/10 70/98/10 69/95/10
f 82/103/2 81/104/2 108/101/2
f 108/101/2 79/135/2 80/102/2
f 81/104/11 82/103/11 78/24/11
f 80/102/2 79/135/2 118/105/2
f 118/105/2 117/137/2 114/106/2
f 109/30/12 112/131/12 108/101/12
f 83/107/37 84/114/37 86/108/37
f 94/110/14 93/122/14 89/111/14
f 86/108/15 90/112/15 89/111/15
f 87/113/45 88/118/45 84/114/45
f 84/114/5 88/118/5 90/112/5
f 89/111/49 87/113/49 83/107/49
f 96/115/5 98/121/5 94/110/5
f 91/117/18 92/116/18 88/118/18
f 92/116/5 94/110/5 90/112/5
f 89/111/2 93/122/2 91/117/2
f 102/119/19 101/130/19 97/120/19
f 93/122/2 97/120/2 95/123/2
f 98/121/20 97/120/20 93/122/20
f 95/123/21 96/115/21 92/116/21
f 103/124/22 104/128/22 100/125/22
f 99/126/23 100/125/23 96/115/23
f 100/125/5 102/119/5 98/121/5
f 97/120/2 101/130/2 99/126/2
f 105/127/24 106/129/24 104/128/24
f 100/125/5 104/128/5 106/129/5
f 105/127/2 103/124/2 99/126/2
f 106/129/25 105/127/25 101/130/25
f 107/31/1 108/101/1 81/104/1
f 110/58/1 111/136/1 112/131/1
f 75/132/5 110/162/5 109/133/5
f 112/131/2 111/136/2 79/135/2
f 111/136/26 110/158/26 75/59/26
f 82/103/4 80/102/4 76/61/4
f 115/63/27 118/105/27 79/135/27
f 116/64/28 113/159/28 114/106/28
f 114/106/4 113/159/4 76/61/4
f 116/64/29 117/137/29 118/105/29
f 75/163/5 76/164/5 115/140/5
f 76/164/5 113/138/5 115/140/5
f 120/141/1 122/147/1 121/142/1
f 123/144/4 126/165/4 125/145/4
f 122/147/10 126/165/10 123/144/10
f 124/146/30 125/145/30 120/141/30
f 125/145/2 126/165/2 122/147/2
f 123/144/41 124/146/41 119/143/41
f 128/148/1 130/155/1 129/149/1
f 131/151/4 134/154/4 133/152/4
f 134/154/10 131/151/10 129/149/10
f 132/153/30 133/152/30 128/148/30
f 133/152/2 134/154/2 130/155/2
f 131/151/5 132/153/5 127/150/5
